<svg xmlns="http://www.w3.org/2000/svg" xmlns:xlink="http://www.w3.org/1999/xlink" width="500" zoomAndPan="magnify" viewBox="0 0 375 374.999991" height="500" preserveAspectRatio="xMidYMid meet" version="1.0"><defs><g/><clipPath id="id1"><path d="M 46.46875 127 L 328 127 L 328 234.253906 L 46.46875 234.253906 Z M 46.46875 127 " clip-rule="nonzero"/></clipPath><clipPath id="id2"><path d="M 159 10.003906 L 281 10.003906 L 281 132 L 159 132 Z M 159 10.003906 " clip-rule="nonzero"/></clipPath></defs><rect x="-37.5" width="450" fill="#ffffff" y="-37.499999" height="449.999989" fill-opacity="1"/><rect x="-37.5" width="450" fill="#ffffff" y="-37.499999" height="449.999989" fill-opacity="1"/><rect x="-37.5" width="450" fill="#363636" y="-37.499999" height="449.999989" fill-opacity="1"/><g clip-path="url(#id1)"><path fill="#3bd80d" d="M 61.425781 228.300781 L 114.859375 228.300781 C 122.957031 228.300781 129.542969 221.722656 129.542969 213.636719 L 129.542969 213.554688 L 180.679688 230.464844 C 188.3125 232.992188 196.183594 234.246094 204.03125 234.246094 C 214.960938 234.246094 225.84375 231.8125 235.980469 226.984375 L 315.949219 187.921875 C 320.90625 185.5 324.621094 181.292969 326.410156 176.082031 C 328.199219 170.867188 327.847656 165.269531 325.421875 160.320312 C 320.421875 150.125 308.039062 145.890625 297.816406 150.855469 L 252.132812 173.113281 C 249.878906 163.792969 241.480469 156.84375 231.46875 156.84375 L 199.507812 156.84375 L 188.21875 150.828125 C 177.5 145.117188 165.417969 142.105469 153.277344 142.105469 L 129.542969 142.105469 L 129.542969 141.746094 C 129.542969 133.660156 122.957031 127.082031 114.859375 127.082031 L 61.425781 127.082031 C 53.328125 127.082031 46.742188 133.660156 46.742188 141.746094 L 46.742188 213.636719 C 46.742188 221.722656 53.328125 228.300781 61.425781 228.300781 Z M 153.277344 154.566406 C 163.378906 154.566406 173.429688 157.078125 182.34375 161.824219 L 195.027344 168.582031 C 195.105469 168.625 195.1875 168.636719 195.265625 168.671875 C 195.535156 168.804688 195.8125 168.90625 196.101562 168.996094 C 196.273438 169.046875 196.441406 169.113281 196.617188 169.152344 C 196.902344 169.21875 197.203125 169.238281 197.503906 169.261719 C 197.65625 169.273438 197.808594 169.316406 197.957031 169.316406 C 197.980469 169.316406 198.003906 169.304688 198.027344 169.304688 L 231.46875 169.304688 C 236.320312 169.304688 240.269531 173.25 240.269531 178.117188 C 240.269531 182.960938 236.320312 186.90625 231.46875 186.90625 L 184.667969 186.90625 C 181.222656 186.90625 178.429688 189.695312 178.429688 193.136719 C 178.429688 196.578125 181.222656 199.367188 184.667969 199.367188 L 231.46875 199.367188 C 239.6875 199.367188 246.816406 194.683594 250.359375 187.847656 L 303.289062 162.058594 C 307.332031 160.089844 312.234375 161.765625 314.214844 165.804688 C 315.175781 167.761719 315.3125 169.976562 314.605469 172.042969 C 313.898438 174.105469 312.425781 175.765625 310.464844 176.726562 L 230.550781 215.761719 C 216.109375 222.636719 199.785156 223.652344 184.605469 218.636719 L 129.542969 200.429688 L 129.542969 154.566406 Z M 59.222656 141.746094 C 59.222656 140.53125 60.210938 139.546875 61.425781 139.546875 L 114.859375 139.546875 C 116.078125 139.546875 117.0625 140.53125 117.0625 141.746094 L 117.0625 213.636719 C 117.0625 214.851562 116.074219 215.839844 114.859375 215.839844 L 61.425781 215.839844 C 60.210938 215.839844 59.222656 214.851562 59.222656 213.636719 Z M 59.222656 141.746094 " fill-opacity="1" fill-rule="nonzero"/></g><path fill="#3bd80d" d="M 226.265625 103.917969 L 226.265625 99.46875 C 234.449219 97.128906 240.394531 90.332031 240.394531 82.320312 C 240.394531 72.378906 231.253906 64.292969 220.027344 64.292969 C 215.75 64.292969 212.136719 61.746094 212.136719 58.730469 C 212.136719 55.71875 215.75 53.171875 220.027344 53.171875 C 224.296875 53.171875 227.214844 55.554688 227.792969 57.796875 C 228.652344 61.125 232.035156 63.128906 235.390625 62.28125 C 238.726562 61.421875 240.738281 58.027344 239.878906 54.691406 C 238.242188 48.332031 232.980469 43.488281 226.265625 41.601562 L 226.265625 37.136719 C 226.265625 33.695312 223.472656 30.90625 220.027344 30.90625 C 216.578125 30.90625 213.785156 33.695312 213.785156 37.136719 L 213.785156 41.585938 C 205.601562 43.921875 199.660156 50.722656 199.660156 58.734375 C 199.660156 68.671875 208.796875 76.757812 220.027344 76.757812 C 224.300781 76.757812 227.914062 79.304688 227.914062 82.320312 C 227.914062 85.332031 224.300781 87.878906 220.027344 87.878906 C 216.0625 87.878906 213.1875 85.769531 212.394531 83.679688 C 211.164062 80.460938 207.554688 78.859375 204.339844 80.074219 C 201.121094 81.300781 199.507812 84.902344 200.730469 88.117188 C 202.832031 93.625 207.75 97.765625 213.785156 99.476562 L 213.785156 103.917969 C 213.785156 107.359375 216.582031 110.148438 220.027344 110.148438 C 223.472656 110.148438 226.265625 107.359375 226.265625 103.917969 Z M 226.265625 103.917969 " fill-opacity="1" fill-rule="nonzero"/><g clip-path="url(#id2)"><path fill="#3bd80d" d="M 280.628906 70.527344 C 280.628906 37.152344 253.441406 10.003906 220.027344 10.003906 C 186.609375 10.003906 159.421875 37.152344 159.421875 70.527344 C 159.421875 103.898438 186.609375 131.050781 220.027344 131.050781 C 253.441406 131.050781 280.628906 103.898438 280.628906 70.527344 Z M 171.902344 70.527344 C 171.902344 44.027344 193.492188 22.464844 220.027344 22.464844 C 246.558594 22.464844 268.148438 44.027344 268.148438 70.527344 C 268.148438 97.027344 246.558594 118.585938 220.027344 118.585938 C 193.492188 118.585938 171.902344 97.023438 171.902344 70.527344 Z M 171.902344 70.527344 " fill-opacity="1" fill-rule="nonzero"/></g><g fill="#ffffff" fill-opacity="1"><g transform="translate(11.165718, 314.406653)"><g><path d="M 40.734375 0 L 7.296875 0 L 7.296875 -58.03125 L 40.734375 -58.03125 L 40.734375 -47.953125 L 19.609375 -47.953125 L 19.609375 -35.203125 L 39.265625 -35.203125 L 39.265625 -25.125 L 19.609375 -25.125 L 19.609375 -10.15625 L 40.734375 -10.15625 Z M 40.734375 0 "/></g></g></g><g fill="#ffffff" fill-opacity="1"><g transform="translate(56.683424, 314.406653)"><g><path d="M 54.21875 0 L 40.171875 0 L 26.671875 -21.953125 L 13.171875 0 L 0 0 L 19.25 -29.9375 L 1.234375 -58.03125 L 14.8125 -58.03125 L 27.3125 -37.15625 L 39.578125 -58.03125 L 52.828125 -58.03125 L 34.609375 -29.25 Z M 54.21875 0 "/></g></g></g><g fill="#ffffff" fill-opacity="1"><g transform="translate(110.891927, 314.406653)"><g><path d="M 19.609375 -30.71875 L 23.65625 -30.71875 C 27.4375 -30.71875 30.265625 -31.460938 32.140625 -32.953125 C 34.023438 -34.453125 34.96875 -36.632812 34.96875 -39.5 C 34.96875 -42.382812 34.179688 -44.515625 32.609375 -45.890625 C 31.035156 -47.265625 28.566406 -47.953125 25.203125 -47.953125 L 19.609375 -47.953125 Z M 47.390625 -39.9375 C 47.390625 -33.6875 45.4375 -28.90625 41.53125 -25.59375 C 37.632812 -22.289062 32.085938 -20.640625 24.890625 -20.640625 L 19.609375 -20.640625 L 19.609375 0 L 7.296875 0 L 7.296875 -58.03125 L 25.84375 -58.03125 C 32.882812 -58.03125 38.234375 -56.515625 41.890625 -53.484375 C 45.554688 -50.453125 47.390625 -45.9375 47.390625 -39.9375 Z M 47.390625 -39.9375 "/></g></g></g><g fill="#ffffff" fill-opacity="1"><g transform="translate(161.925701, 314.406653)"><g><path d="M 40.734375 0 L 7.296875 0 L 7.296875 -58.03125 L 40.734375 -58.03125 L 40.734375 -47.953125 L 19.609375 -47.953125 L 19.609375 -35.203125 L 39.265625 -35.203125 L 39.265625 -25.125 L 19.609375 -25.125 L 19.609375 -10.15625 L 40.734375 -10.15625 Z M 40.734375 0 "/></g></g></g><g fill="#ffffff" fill-opacity="1"><g transform="translate(207.443407, 314.406653)"><g><path d="M 58.796875 0 L 43.15625 0 L 17.90625 -43.90625 L 17.546875 -43.90625 C 18.046875 -36.144531 18.296875 -30.613281 18.296875 -27.3125 L 18.296875 0 L 7.296875 0 L 7.296875 -58.03125 L 22.828125 -58.03125 L 48.03125 -14.5625 L 48.3125 -14.5625 C 47.914062 -22.101562 47.71875 -27.4375 47.71875 -30.5625 L 47.71875 -58.03125 L 58.796875 -58.03125 Z M 58.796875 0 "/></g></g></g><g fill="#ffffff" fill-opacity="1"><g transform="translate(273.517485, 314.406653)"><g><path d="M 41.5625 -16.109375 C 41.5625 -10.867188 39.675781 -6.738281 35.90625 -3.71875 C 32.132812 -0.707031 26.890625 0.796875 20.171875 0.796875 C 13.972656 0.796875 8.492188 -0.367188 3.734375 -2.703125 L 3.734375 -14.125 C 7.648438 -12.382812 10.960938 -11.15625 13.671875 -10.4375 C 16.390625 -9.726562 18.875 -9.375 21.125 -9.375 C 23.820312 -9.375 25.890625 -9.890625 27.328125 -10.921875 C 28.773438 -11.953125 29.5 -13.484375 29.5 -15.515625 C 29.5 -16.660156 29.179688 -17.675781 28.546875 -18.5625 C 27.910156 -19.445312 26.972656 -20.296875 25.734375 -21.109375 C 24.503906 -21.929688 22 -23.242188 18.21875 -25.046875 C 14.675781 -26.710938 12.015625 -28.3125 10.234375 -29.84375 C 8.460938 -31.382812 7.046875 -33.171875 5.984375 -35.203125 C 4.929688 -37.242188 4.40625 -39.628906 4.40625 -42.359375 C 4.40625 -47.492188 6.144531 -51.53125 9.625 -54.46875 C 13.101562 -57.40625 17.914062 -58.875 24.0625 -58.875 C 27.070312 -58.875 29.945312 -58.515625 32.6875 -57.796875 C 35.425781 -57.078125 38.289062 -56.070312 41.28125 -54.78125 L 37.3125 -45.21875 C 34.21875 -46.488281 31.65625 -47.375 29.625 -47.875 C 27.601562 -48.375 25.613281 -48.625 23.65625 -48.625 C 21.332031 -48.625 19.546875 -48.082031 18.296875 -47 C 17.054688 -45.914062 16.4375 -44.5 16.4375 -42.75 C 16.4375 -41.664062 16.6875 -40.71875 17.1875 -39.90625 C 17.6875 -39.101562 18.484375 -38.320312 19.578125 -37.5625 C 20.679688 -36.8125 23.285156 -35.457031 27.390625 -33.5 C 32.816406 -30.90625 36.535156 -28.304688 38.546875 -25.703125 C 40.554688 -23.097656 41.5625 -19.898438 41.5625 -16.109375 Z M 41.5625 -16.109375 "/></g></g></g><g fill="#ffffff" fill-opacity="1"><g transform="translate(318.281169, 314.406653)"><g><path d="M 40.734375 0 L 7.296875 0 L 7.296875 -58.03125 L 40.734375 -58.03125 L 40.734375 -47.953125 L 19.609375 -47.953125 L 19.609375 -35.203125 L 39.265625 -35.203125 L 39.265625 -25.125 L 19.609375 -25.125 L 19.609375 -10.15625 L 40.734375 -10.15625 Z M 40.734375 0 "/></g></g></g><g fill="#3bd80d" fill-opacity="1"><g transform="translate(85.497539, 337.218449)"><g><path d="M 0 -8.753906 C 0.625 -11.726562 3.519531 -14.617188 6.410156 -13.992188 C 6.332031 -13.132812 6.019531 -12.507812 5.863281 -12.195312 C 5.316406 -11.179688 6.019531 -10.867188 6.800781 -11.179688 C 7.503906 -11.414062 9.144531 -11.960938 9.144531 -13.289062 C 9.066406 -14.070312 8.363281 -15.007812 7.347656 -15.554688 C 6.332031 -16.101562 5.316406 -16.257812 4.457031 -16.257812 C 2.734375 -16.257812 1.328125 -15.554688 0.234375 -14.695312 C -1.5625 -13.210938 -2.5 -11.101562 -2.578125 -8.910156 C -2.8125 -3.832031 1.640625 -0.78125 6.175781 -0.78125 C 15.710938 -1.328125 20.871094 -7.503906 22.121094 -9.847656 C 22.667969 -10.867188 22.121094 -12.195312 21.652344 -11.882812 C 16.960938 -7.738281 11.335938 -3.597656 4.847656 -3.125 C 1.328125 -3.125 -0.703125 -5.394531 0 -8.753906 Z M 0 -8.753906 "/></g></g></g><g fill="#3bd80d" fill-opacity="1"><g transform="translate(108.010087, 337.218449)"><g><path d="M 20.792969 -11.101562 C 22.667969 -11.726562 23.214844 -12.742188 20.949219 -12.664062 C 20.246094 -12.664062 17.195312 -12.351562 13.523438 -12.351562 C 11.726562 -12.351562 9.691406 -12.429688 7.738281 -12.664062 C 6.566406 -14.070312 4.847656 -15.085938 2.734375 -15.398438 C 1.171875 -15.476562 0.625 -14.617188 0.3125 -13.523438 C 0.15625 -13.523438 0.078125 -13.445312 -0.078125 -13.445312 C -1.875 -12.820312 -3.910156 -9.066406 -3.359375 -5.785156 C -2.96875 -3.597656 -1.015625 -1.171875 1.875 -1.015625 C 5.472656 -0.78125 8.675781 -2.734375 9.378906 -6.644531 C 9.613281 -7.816406 9.535156 -8.988281 9.222656 -10.003906 C 13.992188 -9.769531 19.074219 -10.472656 20.792969 -11.101562 Z M 1.484375 -11.726562 L 1.640625 -11.882812 C 2.734375 -11.179688 4.222656 -10.710938 6.019531 -10.394531 C 7.269531 -7.582031 5.550781 -3.125 2.109375 -2.96875 C 0.625 -2.890625 -0.234375 -3.753906 -0.625 -6.019531 C -1.015625 -8.207031 0.46875 -10.945312 1.484375 -11.726562 Z M 1.484375 -11.726562 "/></g></g></g><g fill="#3bd80d" fill-opacity="1"><g transform="translate(129.975407, 337.218449)"><g><path d="M -2.265625 -3.753906 C -2.1875 -2.5 0.546875 -1.796875 0.46875 -2.8125 L 0.546875 -4.613281 C 2.03125 -7.894531 7.972656 -11.648438 13.757812 -12.273438 C 13.601562 -11.335938 13.523438 -10.472656 13.523438 -9.613281 C 13.523438 -8.207031 13.757812 -6.878906 14.539062 -5.707031 C 15.945312 -3.675781 18.449219 -2.734375 20.714844 -2.734375 C 26.1875 -2.734375 31.265625 -6.878906 33.144531 -9.300781 C 34.316406 -10.789062 34.003906 -12.507812 33.691406 -12.351562 C 31.1875 -11.101562 24.386719 -4.925781 19.542969 -4.925781 C 18.527344 -4.925781 17.667969 -5.160156 16.882812 -5.785156 C 15.867188 -7.269531 16.726562 -10.238281 16.726562 -11.570312 C 16.726562 -12.742188 15.320312 -14.148438 13.835938 -14.304688 C 9.457031 -14.773438 3.832031 -11.960938 1.171875 -10.003906 L 1.328125 -12.664062 C 1.40625 -13.132812 0.703125 -13.835938 0.078125 -14.226562 C -0.703125 -14.539062 -1.484375 -14.460938 -1.484375 -13.914062 L -2.265625 -6.097656 C -2.421875 -5.160156 -2.34375 -4.378906 -2.265625 -3.753906 Z M -2.265625 -3.753906 "/></g></g></g><g fill="#3bd80d" fill-opacity="1"><g transform="translate(164.213183, 337.218449)"><g><path d="M -0.9375 20.636719 C -0.390625 22.277344 2.03125 23.917969 1.796875 22.121094 C 0.78125 18.449219 0.46875 10.789062 0.46875 2.8125 C 0.46875 -4.300781 0.703125 -11.648438 0.78125 -16.648438 L 1.328125 -29.78125 C 1.953125 -29.78125 2.5 -29.859375 3.125 -29.9375 C 9.066406 -30.40625 18.214844 -31.1875 26.578125 -31.1875 C 31.265625 -31.1875 35.644531 -30.953125 39.164062 -30.25 C 39.789062 -30.171875 40.179688 -30.484375 40.101562 -31.109375 C 39.789062 -31.582031 39.007812 -32.363281 38.300781 -32.675781 C 35.488281 -33.300781 31.421875 -33.535156 26.96875 -33.535156 C 19.308594 -33.535156 10.394531 -32.832031 3.753906 -32.363281 C 2.96875 -32.285156 2.1875 -32.207031 1.484375 -32.207031 C 1.796875 -38.300781 2.265625 -44.398438 2.8125 -48.308594 C 2.578125 -49.871094 -0.46875 -50.339844 -0.390625 -49.089844 C -0.703125 -44.242188 -1.09375 -38.066406 -1.40625 -31.972656 C -11.023438 -31.1875 -16.570312 -30.5625 -22.121094 -29.546875 C -23.449219 -29.234375 -21.808594 -27.203125 -20.324219 -27.4375 C -14.070312 -28.53125 -7.972656 -29 -1.484375 -29.546875 C -1.71875 -24.78125 -1.875 -20.167969 -1.953125 -16.492188 C -2.03125 -13.445312 -2.109375 -9.222656 -2.109375 -4.691406 C -2.109375 5.785156 -1.796875 17.902344 -0.9375 20.636719 Z M -0.9375 20.636719 "/></g></g></g><g fill="#3bd80d" fill-opacity="1"><g transform="translate(175.860284, 337.218449)"><g><path d="M -1.953125 -2.34375 C -1.640625 -1.171875 0.9375 -0.15625 0.859375 -1.171875 C 1.171875 -3.4375 1.171875 -3.910156 1.40625 -4.535156 C 3.28125 -9.925781 9.769531 -14.695312 13.679688 -14.617188 L 13.601562 -13.992188 C 13.523438 -13.367188 14.617188 -12.898438 15.710938 -14.148438 C 16.257812 -14.773438 15.164062 -16.414062 13.367188 -16.726562 C 9.066406 -17.429688 3.28125 -12.898438 1.328125 -10.394531 L 1.40625 -13.445312 C 1.40625 -13.914062 0.9375 -14.695312 0.234375 -15.085938 C -0.546875 -15.476562 -1.328125 -15.476562 -1.328125 -14.929688 C -2.421875 -5.082031 -2.265625 -3.046875 -1.953125 -2.34375 Z M -1.953125 -2.34375 "/></g></g></g><g fill="#3bd80d" fill-opacity="1"><g transform="translate(197.591128, 337.218449)"><g><path d="M 20.792969 -11.101562 C 22.667969 -11.726562 23.214844 -12.742188 20.949219 -12.664062 C 20.246094 -12.664062 17.195312 -12.351562 13.523438 -12.351562 C 11.726562 -12.351562 9.691406 -12.429688 7.738281 -12.664062 C 6.566406 -14.070312 4.847656 -15.085938 2.734375 -15.398438 C 1.171875 -15.476562 0.625 -14.617188 0.3125 -13.523438 C 0.15625 -13.523438 0.078125 -13.445312 -0.078125 -13.445312 C -1.875 -12.820312 -3.910156 -9.066406 -3.359375 -5.785156 C -2.96875 -3.597656 -1.015625 -1.171875 1.875 -1.015625 C 5.472656 -0.78125 8.675781 -2.734375 9.378906 -6.644531 C 9.613281 -7.816406 9.535156 -8.988281 9.222656 -10.003906 C 13.992188 -9.769531 19.074219 -10.472656 20.792969 -11.101562 Z M 1.484375 -11.726562 L 1.640625 -11.882812 C 2.734375 -11.179688 4.222656 -10.710938 6.019531 -10.394531 C 7.269531 -7.582031 5.550781 -3.125 2.109375 -2.96875 C 0.625 -2.890625 -0.234375 -3.753906 -0.625 -6.019531 C -1.015625 -8.207031 0.46875 -10.945312 1.484375 -11.726562 Z M 1.484375 -11.726562 "/></g></g></g><g fill="#3bd80d" fill-opacity="1"><g transform="translate(219.556447, 337.218449)"><g><path d="M 5.550781 3.203125 C 10.472656 3.203125 16.726562 -5.238281 18.136719 -9.144531 C 18.449219 -10.082031 18.292969 -12.039062 17.511719 -10.945312 C 16.335938 -9.457031 6.878906 3.28125 2.8125 0.78125 C 1.09375 -0.390625 0.46875 -5.941406 0.46875 -12.898438 C 0.46875 -26.421875 2.734375 -45.179688 3.203125 -46.667969 C 3.203125 -47.058594 2.578125 -47.683594 1.796875 -48.074219 C 1.015625 -48.386719 0.546875 -48.308594 0.46875 -47.839844 C -0.546875 -44.554688 -2.734375 -27.75 -2.734375 -14.773438 C -2.734375 -8.285156 -2.1875 -2.734375 -0.703125 -0.390625 C 0.859375 1.796875 3.046875 3.203125 5.550781 3.203125 Z M 5.550781 3.203125 "/></g></g></g><g fill="#3bd80d" fill-opacity="1"><g transform="translate(239.880232, 337.218449)"><g><path d="M 5.550781 3.203125 C 10.472656 3.203125 16.726562 -5.238281 18.136719 -9.144531 C 18.449219 -10.082031 18.292969 -12.039062 17.511719 -10.945312 C 16.335938 -9.457031 6.878906 3.28125 2.8125 0.78125 C 1.09375 -0.390625 0.46875 -5.941406 0.46875 -12.898438 C 0.46875 -26.421875 2.734375 -45.179688 3.203125 -46.667969 C 3.203125 -47.058594 2.578125 -47.683594 1.796875 -48.074219 C 1.015625 -48.386719 0.546875 -48.308594 0.46875 -47.839844 C -0.546875 -44.554688 -2.734375 -27.75 -2.734375 -14.773438 C -2.734375 -8.285156 -2.1875 -2.734375 -0.703125 -0.390625 C 0.859375 1.796875 3.046875 3.203125 5.550781 3.203125 Z M 5.550781 3.203125 "/></g></g></g><g fill="#3bd80d" fill-opacity="1"><g transform="translate(260.204016, 337.218449)"><g><path d="M 8.519531 -0.703125 C 13.914062 -1.015625 18.917969 -4.847656 21.105469 -9.378906 C 22.199219 -11.570312 22.511719 -13.367188 20.714844 -11.492188 C 17.429688 -8.050781 11.960938 -2.578125 4.613281 -2.578125 C 1.875 -2.578125 -0.859375 -5.082031 -1.09375 -6.566406 C 1.640625 -6.566406 5.003906 -8.441406 6.019531 -10.945312 C 6.878906 -13.210938 4.613281 -15.554688 2.1875 -15.554688 C -1.640625 -15.398438 -3.988281 -11.882812 -3.988281 -8.441406 C -3.988281 -7.660156 -3.832031 -6.878906 -3.597656 -6.175781 C -2.03125 -1.328125 3.910156 -0.46875 8.519531 -0.703125 Z M 3.4375 -12.898438 C 4.300781 -12.039062 2.109375 -9.925781 -1.171875 -8.441406 C -1.25 -10.394531 1.796875 -14.539062 3.4375 -12.898438 Z M 3.4375 -12.898438 "/></g></g></g><g fill="#3bd80d" fill-opacity="1"><g transform="translate(282.560213, 337.218449)"><g><path d="M -1.953125 -2.34375 C -1.640625 -1.171875 0.9375 -0.15625 0.859375 -1.171875 C 1.171875 -3.4375 1.171875 -3.910156 1.40625 -4.535156 C 3.28125 -9.925781 9.769531 -14.695312 13.679688 -14.617188 L 13.601562 -13.992188 C 13.523438 -13.367188 14.617188 -12.898438 15.710938 -14.148438 C 16.257812 -14.773438 15.164062 -16.414062 13.367188 -16.726562 C 9.066406 -17.429688 3.28125 -12.898438 1.328125 -10.394531 L 1.40625 -13.445312 C 1.40625 -13.914062 0.9375 -14.695312 0.234375 -15.085938 C -0.546875 -15.476562 -1.328125 -15.476562 -1.328125 -14.929688 C -2.421875 -5.082031 -2.265625 -3.046875 -1.953125 -2.34375 Z M -1.953125 -2.34375 "/></g></g></g></svg>